# xmcd
#
# Track frame offsets: 
#        150
#        17235
#        39382
#        65505
#        84860
#        86847
#        119915
#        142202
#        179417
#        211730
#        230465
#        255952
#        295972
#
# Disc length: 3952 seconds
#
# Revision: 1
# Processed by: cddbd v1.4PL0 Copyright (c) Steve Scherf et al.
# Submitted via: ExactAudioCopy v0.90b4
#
DISCID=bb0f6e0d
DTITLE=David Lynch and John Neff - Bluebob
DYEAR=2001
DGENRE=Rock and Roll
TTITLE0=9*1*1
TTITLE1=Rollin' Down (To My House)
TTITLE2=Thank You, Judge
TTITLE3=I Cannot Do That
TTITLE4=Factory Interlude (Instrumental)
TTITLE5=Blue Horse (Instrumental)
TTITLE6=Bad Night
TTITLE7=Moutains Falling
TTITLE8=Go Get Some (Instrumental)
TTITLE9=Pink Western Range
TTITLE10=Marilyn Monroe
TTITLE11=City of Dreams
TTITLE12=DATA
EXTD=The album BLUEBOB, performed by David Lynch and John Neff, sold f
EXTD=or $19.99 courtesy of DavidLynch.com.
EXTT0=
EXTT1=
EXTT2=
EXTT3=
EXTT4=
EXTT5=
EXTT6=
EXTT7=
EXTT8=
EXTT9=
EXTT10=
EXTT11=
EXTT12=
PLAYORDER=
